<svg id="Capa_1" enable-background="new 0 0 512 512" height="512" viewBox="0 0 512 512" width="512" xmlns="http://www.w3.org/2000/svg"><g><path d="m162.75 445.876-15.625 66.124h-101.125v-66.054c0-33.78 22.32-63.17 54.2-72.59z" fill="#9ee2f8"/><path d="m411.81 373.356c31.879 9.43 54.19 38.81 54.19 72.59v66.054h-101.141l-18.859-67.288z" fill="#8cbcff"/><path d="m189.03 340.916c9.46-12.86 15.6-29.26 16.989-47.18h.011l25.13-7.78 24.84 22.92 10 28.54-10 16.46-36.875 7.625z" fill="#edbba7"/><path d="m294.375 359.286-38.375-5.41v-45l24.84-22.92 25.13 7.78h.011c1.39 17.95 7.55 34.34 16.989 47.18z" fill="#e8a38b"/><path d="m166 214.377 10-21.5-10-24.69c0-13.405-10.094-24.31-22.5-24.31s-22.5 10.905-22.5 24.31c0 39.382 45 46.19 45 46.19z" fill="#edbba7"/><path d="m391 168.187c0-13.405-10.094-24.31-22.5-24.31s-22.5 10.905-22.5 24.31l-10 24.19 10 22s45-6.808 45-46.19z" fill="#e8a38b"/><path d="m166 113.876v105.418c0 49.704 40.293 90 90 90l15-105-15-90.418-45-10.001z" fill="#f0cabb"/><path d="m346 219.294c0-14.518 0-90.805 0-105.418l-42.667-10-47.333 10v195.418c49.704 0 90-40.292 90-90z" fill="#edbba7"/><path d="m335.083 41.543-8.009-13.484 22.153-28.059 23.546 18.588-22.242 28.174z" fill="#443d66"/><path d="m151 39.294c0 6.118 4.227 26.453 8.191 44.582l49.309 10 47.5-10 10-30-10-44.582c-57.99 0-105 5.147-105 30z" fill="#4d4d80"/><path d="m361 69.294c0-24.853-47.01-60-105-60v74.582l48.5 10 53.194-10c1.923-5.987 3.306-11.086 3.306-14.582z" fill="#443d66"/><path d="m159.191 83.877c3.506 16.025 6.809 30 6.809 30h90l10-15-10-15z" fill="#443d66"/><path d="m357.694 83.877h-101.694v30h90s7.277-16.247 11.694-30z" fill="#2e2e4d"/><path d="m140.939 403.399 27.55 25.477h87.511l10-32.5-10-42.5c-24.67 0-48.22-4.68-66.97-12.96-4.66 6.37-8.46 11.44-29.33 18.37-9.03 3.01-19.07 5.52-28.41 7.58z" fill="#fbf3f3"/><path d="m368.065 406.677-24.556 22.199h-87.509v-75c22.27 0 46.44-3.88 66.97-12.96 4.641 6.31 8.53 11.54 29.311 18.38 9.05 2.99 19.12 5.46 28.479 7.5z" fill="#e8e3f0"/><path d="m218.496 219.64 15.008 25.976 22.367-12.923.129.077 10-15.393-10-19.406z" fill="#c47e4e"/><path d="m292.695 219.752-36.566-21.855-.129.074v34.799l21.305 12.733z" fill="#a05f4b"/><path d="m168.49 428.876-37.2-62.01c-19.378 4.244-23.568 4.247-31.09 6.49l46.925 78.215v60.429h108.875l10-41.456-10-41.668z" fill="#4d4d80"/><path d="m380.76 366.796-37.25 62.08h-87.51v83.124h108.86v-60.404l46.95-78.24c-7.117-2.089-14.696-2.971-31.05-6.56z" fill="#443d66"/></g></svg>